<?xml version="1.0" encoding="utf-8"?>
<svg xmlns="http://www.w3.org/2000/svg"
	xmlns:xlink="http://www.w3.org/1999/xlink"
	width="41px" height="41px" viewBox="0 0 41 41">
<path fillRule="evenodd" d="M 20.5 41C 9.15 41-0 31.85-0 20.5-0 9.15 9.16-0 20.5-0 31.84-0 41 9.15 41 20.5 41 31.85 31.85 41 20.5 41ZM 20.5 2.74C 10.66 2.74 2.74 10.66 2.74 20.5 2.74 30.34 10.66 38.26 20.5 38.26 30.34 38.26 38.26 30.34 38.26 20.5 38.26 10.66 30.34 2.74 20.5 2.74ZM 18.86 27.88C 18.59 28.15 18.31 28.28 17.9 28.28 17.49 28.28 17.22 28.15 16.95 27.88 16.95 27.88 10.66 21.59 10.66 21.59 10.12 21.04 10.12 20.22 10.66 19.68 11.21 19.13 12.04 19.13 12.58 19.68 12.58 19.68 17.9 25 17.9 25 17.9 25 28.42 14.49 28.42 14.49 28.97 13.94 29.8 13.94 30.34 14.49 30.88 15.04 30.88 15.86 30.34 16.4 30.34 16.4 18.86 27.88 18.86 27.88Z" fill="rgb(123,177,89)"/></svg>