<?xml version="1.0" encoding="utf-8"?>
<svg xmlns="http://www.w3.org/2000/svg"
	xmlns:xlink="http://www.w3.org/1999/xlink"
	width="42px" height="40px" viewBox="0 0 42 40">
<path fillRule="evenodd" d="M 37.89 14.69C 38.09 15.88 37.89 16.77 37.28 17.46 36.88 17.96 36.28 18.25 35.48 18.35 35.28 19.24 34.78 20.04 34.08 20.43 33.28 20.83 32.37 20.93 31.37 20.73 31.07 21.82 30.47 22.91 29.57 23.11 29.47 23.21 29.27 23.21 29.17 23.21 28.56 23.21 28.06 22.91 27.66 22.61 25.76 23.8 23.15 22.91 21.75 22.22 21.75 22.22 21.75 30.83 21.75 30.83 24.15 32.32 26.36 33.7 26.36 35.68 26.36 36.77 26.06 37.76 25.26 38.46 23.85 39.74 21.65 39.84 21.05 39.84 20.95 39.84 20.85 39.84 20.85 39.84 20.45 39.84 20.05 39.55 20.05 39.05 20.05 39.05 20.05 31.72 20.05 31.72 17.74 30.24 15.64 28.65 15.64 26.47 15.64 25.19 16.04 24.2 16.54 23.31 15.74 23.31 15.03 23.11 14.33 22.71 13.83 23.11 13.13 23.5 12.43 23.31 11.53 23.11 10.92 22.02 10.62 20.93 9.62 21.23 8.62 21.13 7.92 20.63 7.22 20.24 6.72 19.44 6.51 18.55 5.81 18.45 5.11 18.16 4.71 17.66 4.11 16.97 3.91 16.08 4.11 14.89 1.5 13.9 0.2 11.42-0 7.66-0 7.26 0.2 6.96 0.4 6.87 0.7 6.67 1 6.67 1.3 6.87 5.01 9.14 6.82 10.03 12.73 8.95 13.93 8.65 14.83 8.85 15.43 9.54 16.44 10.53 16.14 12.31 15.84 13.6 15.84 13.9 15.74 14.29 15.74 14.39 15.84 16.27 17.24 17.46 20.05 17.96 20.05 17.96 20.05 10.23 20.05 10.23 17.84 9.84 16.14 7.95 16.14 5.68 16.14 3.1 18.34 0.82 20.95 0.82 23.55 0.82 25.66 2.9 25.66 5.48 25.66 7.76 23.95 9.64 21.75 10.03 21.75 10.03 21.75 17.66 21.75 17.66 24.66 17.17 26.26 15.98 26.26 14.1 26.26 14 26.26 13.6 26.16 13.3 25.86 12.02 25.56 10.23 26.56 9.24 27.16 8.65 28.06 8.55 29.27 8.75 35.18 9.84 36.98 8.95 40.69 6.67 40.99 6.47 41.29 6.47 41.59 6.67 41.9 6.87 42 7.16 42 7.46 41.79 11.32 40.49 13.7 37.89 14.69ZM 21.75 38.16C 22.45 38.06 23.45 37.86 24.05 37.27 24.46 36.87 24.66 36.38 24.66 35.68 24.66 34.89 23.25 33.8 21.75 32.81 21.75 32.81 21.75 38.16 21.75 38.16ZM 20.05 29.74C 20.05 29.74 20.05 22.41 20.05 22.41 19.84 22.51 19.54 22.61 19.34 22.71 18.34 23.4 17.34 24.59 17.34 26.47 17.34 27.66 18.54 28.75 20.05 29.74ZM 14.13 14.39C 14.13 14.1 14.23 13.7 14.33 13.2 14.43 12.41 14.73 11.02 14.33 10.63 14.13 10.43 13.73 10.43 13.13 10.53 7.62 11.62 5.21 11.02 1.9 9.14 2.41 12.51 4.31 13.9 8.02 13.7 8.52 13.7 8.92 14 8.92 14.49 8.92 14.99 8.62 15.38 8.12 15.38 7.22 15.48 6.51 15.38 5.81 15.28 5.71 15.68 5.81 16.17 6.01 16.47 6.31 16.87 6.92 16.87 7.32 16.87 7.82 16.87 8.22 17.17 8.22 17.66 8.22 18.25 8.42 18.95 8.92 19.24 9.32 19.54 10.12 19.44 11.02 19.15 11.23 19.05 11.53 19.05 11.73 19.15 11.93 19.34 12.03 19.54 12.13 19.74 12.53 21.42 12.93 21.72 12.93 21.72 12.93 21.72 13.13 21.62 13.63 21.13 13.73 20.93 14.03 20.83 14.23 20.83 14.43 20.83 14.63 20.93 14.83 21.13 15.74 22.02 17.34 21.82 18.54 21.32 19.04 20.93 19.54 20.73 20.15 20.53 20.15 20.53 20.15 19.64 20.15 19.64 15.03 18.75 14.13 15.98 14.13 14.39ZM 23.85 5.68C 23.85 3.99 22.55 2.71 20.85 2.71 19.14 2.71 17.84 3.99 17.84 5.68 17.84 7.26 19.14 8.65 20.85 8.65 22.55 8.65 23.85 7.36 23.85 5.68ZM 29.07 10.43C 28.46 10.33 28.06 10.33 27.86 10.53 27.46 10.93 27.66 12.31 27.86 13.1 27.96 13.6 28.06 14 28.06 14.29 28.06 15.88 27.16 18.75 21.85 19.54 21.85 19.54 21.85 20.53 21.85 20.53 22.55 20.93 25.76 22.61 27.26 21.13 27.36 20.93 27.66 20.83 27.86 20.83 28.06 20.83 28.26 20.93 28.46 21.13 28.97 21.72 29.27 21.72 29.27 21.72 29.27 21.72 29.67 21.52 30.07 19.74 30.07 19.44 30.27 19.24 30.47 19.15 30.67 19.05 30.97 19.05 31.17 19.15 32.07 19.54 32.77 19.54 33.28 19.24 33.78 18.85 33.98 18.16 33.98 17.66 33.98 17.17 34.38 16.87 34.78 16.87 34.78 16.87 34.88 16.87 34.88 16.87 35.28 16.87 35.78 16.77 36.08 16.47 36.28 16.17 36.28 15.68 36.28 15.28 35.58 15.38 34.78 15.38 33.98 15.38 33.48 15.38 33.18 14.99 33.18 14.49 33.18 14 33.58 13.7 34.08 13.7 37.69 13.8 39.59 12.41 40.29 9.04 36.88 10.93 34.58 11.52 29.07 10.43ZM 31.17 14.99C 30.67 14.99 30.27 14.59 30.27 14.1 30.27 13.6 30.67 13.2 31.17 13.2 31.67 13.2 32.07 13.6 32.07 14.1 32.07 14.59 31.67 14.99 31.17 14.99ZM 10.72 14.99C 10.23 14.99 9.82 14.59 9.82 14.1 9.82 13.6 10.23 13.2 10.72 13.2 11.22 13.2 11.63 13.6 11.63 14.1 11.63 14.59 11.22 14.99 10.72 14.99Z" fill="rgb(255,255,255)"/></svg>