<?xml version="1.0" encoding="utf-8"?>
<svg xmlns="http://www.w3.org/2000/svg"
	xmlns:xlink="http://www.w3.org/1999/xlink"
	width="44px" height="37px" viewBox="0 0 44 37">
<path fillRule="evenodd" d="M 40.57 26.51C 39.06 27.63 30.06 33.61 26.62 35.84 26.62 35.84 26.31 36.04 26.31 36.04 25.71 36.44 25.1 36.65 24.39 36.65 24.19 36.65 23.89 36.65 23.58 36.54 23.58 36.54 9.63 33 9.63 33 9.63 34.62 8.31 35.84 6.8 35.84 6.8 35.84 3.76 35.84 3.76 35.84 2.25 35.84 0.93 34.52 0.93 33 0.93 33 0.93 20.84 0.93 20.84 0.93 19.32 2.25 18 3.76 18 3.76 18 6.9 18 6.9 18 8.42 18 9.73 19.32 9.73 20.84 9.73 20.84 14.79 20.03 14.79 20.03 14.89 20.03 14.99 20.03 15.09 20.03 15.09 20.03 24.39 22.36 24.39 22.36 24.49 22.26 24.49 22.16 24.6 22.16 25 21.85 25.4 21.65 25.81 21.35 28.44 19.52 31.17 17.6 33.29 19.72 34.51 18.91 35.72 18.51 36.83 18.71 37.64 18.91 38.35 19.42 38.85 20.33 38.85 20.43 38.85 20.43 38.85 20.43 40.47 20.03 41.89 20.13 42.7 21.35 43.91 22.97 43.2 24.69 40.57 26.51ZM 7.91 20.84C 7.91 20.23 7.4 19.72 6.8 19.72 6.8 19.72 3.76 19.72 3.76 19.72 3.16 19.72 2.65 20.23 2.65 20.84 2.65 20.84 2.65 33 2.65 33 2.65 33.61 3.16 34.11 3.76 34.11 3.76 34.11 6.8 34.11 6.8 34.11 7.4 34.11 7.91 33.61 7.91 33 7.91 33 7.91 20.84 7.91 20.84ZM 41.28 22.46C 40.98 22.05 39.56 21.04 33.19 25.5 32.79 25.8 32.28 25.7 31.98 25.3 31.67 24.89 31.78 24.39 32.18 24.08 33.7 23.07 35.42 21.85 37.14 21.14 36.73 20.64 36.43 20.53 36.33 20.53 35.42 20.33 34 21.24 32.48 22.26 32.08 22.56 31.67 22.87 31.17 23.17 31.07 23.27 30.97 23.27 30.76 23.27 30.46 23.27 30.26 23.17 30.06 22.87 29.75 22.46 29.96 21.85 30.36 21.55 30.76 21.35 31.27 21.04 31.67 20.74 30.66 20.23 29.25 21.04 26.72 22.76 26.62 22.76 26.62 22.87 26.52 22.87 26.52 22.87 27.23 23.17 27.23 23.17 29.85 23.78 30.97 26.01 30.66 27.83 30.36 29.45 29.05 30.97 26.62 30.97 26.31 30.97 26.11 30.87 25.81 30.87 21.97 30.36 18.73 29.86 18.73 29.86 18.23 29.76 17.92 29.35 18.02 28.84 18.12 28.34 18.53 28.03 19.03 28.13 19.14 28.13 22.27 28.64 26.11 29.15 27.93 29.35 28.84 28.44 29.05 27.42 29.15 26.31 28.54 25.09 26.82 24.69 26.82 24.69 14.89 21.65 14.89 21.65 14.89 21.65 9.73 22.56 9.73 22.56 9.73 22.56 9.73 31.28 9.73 31.28 9.73 31.28 24.09 34.92 24.09 34.92 24.6 35.02 25.1 35.02 25.51 34.72 25.51 34.72 25.81 34.52 25.81 34.52 29.15 32.29 38.15 26.31 39.66 25.2 42.09 23.37 41.58 22.66 41.28 22.46ZM 27.73 12.73C 27.73 14.35 27.02 15.37 26.42 15.87 25.91 16.28 25.3 16.48 24.7 16.68 24.7 16.68 24.7 17.8 24.7 17.8 24.7 18.3 24.29 18.71 23.89 18.71 23.48 18.71 23.08 18.3 23.08 17.8 23.08 17.8 23.08 16.89 23.08 16.89 21.06 16.68 19.03 15.27 19.03 12.73 19.03 12.23 19.44 11.82 19.94 11.82 20.45 11.82 20.85 12.23 20.85 12.73 20.85 14.15 21.97 14.96 23.18 15.06 23.18 15.06 23.18 10.1 23.18 10.1 23.08 10.1 23.08 10.1 22.98 10.1 21.26 9.69 19.14 9.08 19.14 6.65 19.14 3.81 21.16 2.6 23.18 2.6 23.18 2.6 23.18 1.59 23.18 1.59 23.18 1.08 23.38 0.67 23.79 0.67 24.19 0.67 24.6 1.08 24.6 1.59 24.6 1.59 24.6 2.9 24.6 2.9 26.21 3.41 27.63 4.73 27.63 6.65 27.63 7.16 27.23 7.56 26.82 7.56 26.42 7.56 26.01 7.16 26.01 6.65 26.01 5.84 25.51 5.33 25.1 5.03 25 5.03 24.8 4.93 24.7 4.83 24.7 4.83 24.7 8.88 24.7 8.88 26.21 9.39 27.73 10.3 27.73 12.73ZM 24.9 14.86C 25.1 14.76 25.3 14.66 25.51 14.56 26.01 14.15 26.21 13.54 26.21 12.73 26.21 11.62 25.71 11.11 24.9 10.71 24.9 10.71 24.9 14.86 24.9 14.86ZM 23.18 4.32C 22.47 4.32 20.85 4.52 20.85 6.65 20.85 7.56 21.46 7.97 23.18 8.37 23.18 8.37 23.18 4.32 23.18 4.32Z" fill="rgb(255,255,255)"/></svg>