<?xml version="1.0" encoding="utf-8"?>
<svg xmlns="http://www.w3.org/2000/svg"
	xmlns:xlink="http://www.w3.org/1999/xlink"
	width="42px" height="29px" viewBox="0 0 42 29">
<path fillRule="evenodd" d="M 34.34 21.18C 33.31 21.18 32.34 21.58 31.6 22.31 30.86 23.06 30.45 24.02 30.45 25.06 30.45 26.09 30.86 27.06 31.6 27.8 32.34 28.53 33.31 28.94 34.34 28.94 36.44 28.94 38.15 27.19 38.15 25.06 38.15 22.92 36.44 21.18 34.34 21.18ZM 34.34 27.21C 33.16 27.21 32.16 26.23 32.16 25.06 32.16 23.88 33.16 22.9 34.34 22.9 35.5 22.9 36.44 23.87 36.44 25.06 36.44 26.25 35.5 27.21 34.34 27.21ZM 35.33 8.25C 35.18 8.1 34.97 8.02 34.76 8.02 34.76 8.02 30.37 8.02 30.37 8.02 29.9 8.02 29.51 8.41 29.51 8.89 29.51 8.89 29.51 15.96 29.51 15.96 29.51 16.43 29.9 16.82 30.37 16.82 30.37 16.82 37.33 16.82 37.33 16.82 37.8 16.82 38.19 16.43 38.19 15.96 38.19 15.96 38.19 11.22 38.19 11.22 38.19 10.98 38.08 10.75 37.9 10.58 37.9 10.58 35.33 8.25 35.33 8.25ZM 36.48 15.09C 36.48 15.09 31.22 15.09 31.22 15.09 31.22 15.09 31.22 9.74 31.22 9.74 31.22 9.74 34.42 9.74 34.42 9.74 34.42 9.74 36.48 11.6 36.48 11.6 36.48 11.6 36.48 15.09 36.48 15.09ZM 13.45 21.18C 12.43 21.18 11.45 21.58 10.72 22.31 9.98 23.06 9.57 24.02 9.57 25.06 9.57 26.09 9.97 27.06 10.72 27.8 11.46 28.53 12.43 28.94 13.45 28.94 15.56 28.94 17.27 27.19 17.27 25.06 17.27 22.92 15.56 21.18 13.45 21.18ZM 13.45 27.21C 12.27 27.21 11.28 26.23 11.28 25.06 11.28 23.88 12.27 22.9 13.45 22.9 14.62 22.9 15.56 23.87 15.56 25.06 15.56 26.25 14.62 27.21 13.45 27.21ZM 10.85 22.24C 10.85 22.24 6.03 22.24 6.03 22.24 6.03 22.24 6.03 19.94 6.03 19.94 6.03 19.47 5.64 19.08 5.17 19.08 4.7 19.08 4.32 19.47 4.32 19.94 4.32 19.94 4.32 23.1 4.32 23.1 4.32 23.57 4.7 23.96 5.17 23.96 5.17 23.96 10.85 23.96 10.85 23.96 11.32 23.96 11.71 23.57 11.71 23.1 11.71 22.62 11.32 22.24 10.85 22.24ZM 12.08 17.54C 12.08 17.06 11.7 16.67 11.23 16.67 11.23 16.67 0.86 16.67 0.86 16.67 0.38 16.67-0 17.06-0 17.54-0 18.01 0.38 18.4 0.86 18.4 0.86 18.4 11.23 18.4 11.23 18.4 11.7 18.4 12.08 18.02 12.08 17.54ZM 2.59 14.42C 2.59 14.42 12.97 14.48 12.97 14.48 13.44 14.48 13.82 14.1 13.83 13.63 13.84 13.15 13.45 12.76 12.98 12.76 12.98 12.76 2.61 12.7 2.61 12.7 2.6 12.7 2.6 12.7 2.6 12.7 2.13 12.7 1.74 13.08 1.74 13.55 1.74 14.03 2.12 14.42 2.59 14.42ZM 4.34 10.51C 4.34 10.51 14.71 10.51 14.71 10.51 15.18 10.51 15.57 10.12 15.57 9.64 15.57 9.17 15.18 8.78 14.71 8.78 14.71 8.78 4.34 8.78 4.34 8.78 3.87 8.78 3.48 9.17 3.48 9.64 3.48 10.12 3.87 10.51 4.34 10.51ZM 41.68 9.34C 41.68 9.34 41.68 9.34 41.68 9.34 41.68 9.34 35.56 4.23 35.56 4.23 35.41 4.1 35.22 4.03 35.01 4.03 35.01 4.03 27.81 4.03 27.81 4.03 27.81 4.03 27.81 0.92 27.81 0.92 27.81 0.45 27.43 0.06 26.96 0.06 26.96 0.06 5.17 0.06 5.17 0.06 4.7 0.06 4.32 0.45 4.32 0.92 4.32 0.92 4.32 7.24 4.32 7.24 4.32 7.71 4.7 8.1 5.17 8.1 5.64 8.1 6.03 7.71 6.03 7.24 6.03 7.24 6.03 1.79 6.03 1.79 6.03 1.79 26.11 1.79 26.11 1.79 26.11 1.79 26.11 22.24 26.11 22.24 26.11 22.24 15.98 22.24 15.98 22.24 15.51 22.24 15.13 22.62 15.13 23.1 15.13 23.57 15.51 23.96 15.98 23.96 15.98 23.96 31.74 23.96 31.74 23.96 32.21 23.96 32.59 23.57 32.59 23.1 32.59 22.62 32.21 22.24 31.74 22.24 31.74 22.24 27.82 22.24 27.82 22.24 27.82 22.24 27.82 5.75 27.82 5.75 27.82 5.75 34.71 5.75 34.71 5.75 34.71 5.75 40.29 10.41 40.29 10.41 40.29 10.41 40.23 22.22 40.23 22.22 40.23 22.22 36.9 22.22 36.9 22.22 36.43 22.22 36.05 22.61 36.05 23.08 36.05 23.56 36.43 23.94 36.9 23.94 36.9 23.94 41.08 23.94 41.08 23.94 41.55 23.94 41.93 23.56 41.93 23.09 41.93 23.09 42 10.02 42 10.02 41.99 9.76 41.88 9.51 41.68 9.34Z" fill="rgb(255,255,255)"/></svg>