<?xml version="1.0" encoding="utf-8"?>
<svg xmlns="http://www.w3.org/2000/svg"
	xmlns:xlink="http://www.w3.org/1999/xlink"
	width="42px" height="30px" viewBox="0 0 42 30">
<path fillRule="evenodd" d="M 41.06 20.97C 40.76 20.67 40.35 20.47 39.95 20.37 39.95 20.37 39.95 13.02 39.95 13.02 39.95 13.02 39.95 13.02 39.95 13.02 39.95 13.02 39.95 13.02 39.95 13.02 39.95 13.02 39.95 13.02 39.95 13.02 39.95 12.92 39.95 12.72 39.85 12.62 39.85 12.62 39.85 12.52 39.75 12.52 39.65 12.42 39.65 12.42 39.55 12.32 39.55 12.32 39.55 12.32 39.55 12.22 39.55 12.22 20.42 0.14 20.42 0.14 20.12-0.06 19.81-0.06 19.51 0.14 19.51 0.14 0.38 12.22 0.38 12.22 0.18 12.42-0.02 12.62-0.02 12.92-0.02 13.22 0.08 13.52 0.38 13.62 0.38 13.62 9.04 19.16 9.04 19.16 9.04 19.16 9.04 24.09 9.04 24.09 9.04 24.39 9.14 24.69 9.44 24.79 9.64 25 9.95 25 10.25 24.9 10.25 24.9 15.28 22.68 19.41 26.71 19.61 26.91 19.81 26.91 20.01 26.91 20.22 26.91 20.42 26.81 20.62 26.71 24.65 22.68 29.48 24.79 29.78 24.9 30.08 25 30.39 25 30.59 24.79 30.79 24.59 30.99 24.39 30.99 24.09 30.99 24.09 30.99 19.26 30.99 19.26 30.99 19.26 38.34 14.63 38.34 14.63 38.34 14.63 38.34 20.37 38.34 20.37 36.33 21.07 36.33 24.09 36.33 25.1 36.33 25.1 36.33 29.12 36.33 29.12 36.33 29.62 36.73 29.93 37.13 29.93 37.13 29.93 41.16 29.93 41.16 29.93 41.66 29.93 41.96 29.52 41.96 29.12 41.96 29.12 41.96 25.1 41.96 25.1 41.96 25 41.96 24.79 41.96 24.69 41.96 23.59 41.96 21.98 41.06 20.97ZM 29.18 22.88C 27.26 22.38 23.44 21.98 19.91 24.9 17.8 22.98 15.38 22.48 13.47 22.48 12.36 22.48 11.36 22.68 10.65 22.88 10.65 22.88 10.65 16.54 10.65 16.54 11.66 16.04 14.48 14.93 19.81 14.93 25.15 14.93 28.07 16.14 29.08 16.54 29.08 16.54 29.08 22.88 29.08 22.88 29.08 22.88 29.18 22.88 29.18 22.88ZM 30.79 17.25C 30.79 17.25 30.79 16.04 30.79 16.04 30.79 15.74 30.69 15.54 30.39 15.34 30.28 15.23 27.16 13.12 19.81 13.12 12.46 13.12 9.44 15.23 9.34 15.34 9.14 15.54 8.94 15.74 8.94 16.04 8.94 16.04 8.94 17.25 8.94 17.25 8.94 17.25 2.39 13.02 2.39 13.02 2.39 13.02 19.91 1.95 19.91 1.95 19.91 1.95 37.53 13.02 37.53 13.02 37.53 13.02 30.79 17.25 30.79 17.25ZM 40.25 24.59C 40.25 24.79 40.25 24.9 40.25 25.1 40.25 25.1 40.25 28.32 40.25 28.32 40.25 28.32 37.94 28.32 37.94 28.32 37.94 28.32 37.94 25.1 37.94 25.1 37.94 22.28 38.64 21.88 39.15 21.88 39.65 21.88 39.85 22.08 39.85 22.08 40.25 22.68 40.25 23.89 40.25 24.59Z" fill="rgb(255,255,255)"/></svg>