<?xml version="1.0" encoding="utf-8"?>
<svg xmlns="http://www.w3.org/2000/svg"
	xmlns:xlink="http://www.w3.org/1999/xlink"
	width="42px" height="29px" viewBox="0 0 42 29">
<path fillRule="evenodd" d="M 38.51 23.47C 38.51 23.47 37.91 23.47 37.91 23.47 37.91 23.47 37.91 27.72 37.91 27.72 37.91 28.03 37.71 28.33 37.41 28.54 37.31 28.64 37.21 28.64 37.01 28.64 36.91 28.43 36.71 28.33 36.51 28.23 36.51 28.23 30.73 23.37 30.73 23.37 30.73 23.37 18.75 23.37 18.75 23.37 16.86 23.37 15.26 21.74 15.26 19.82 15.26 19.82 15.26 18.6 15.26 18.6 15.26 18.6 11.17 18.6 11.17 18.6 11.17 18.6 5.38 23.47 5.38 23.47 5.28 23.57 5.08 23.67 4.88 23.67 4.68 23.67 4.58 23.67 4.49 23.67 4.19 23.47 3.99 23.16 3.99 22.86 3.99 22.86 3.99 18.6 3.99 18.6 3.99 18.6 3.49 18.6 3.49 18.6 1.59 18.6-0 17.08-0 15.16-0 15.16-0 4.21-0 4.21-0 2.29 1.59 0.66 3.49 0.66 3.49 0.66 23.14 0.66 23.14 0.66 25.04 0.66 26.63 2.29 26.73 4.21 26.73 4.21 26.73 5.43 26.73 5.43 26.73 5.43 38.51 5.43 38.51 5.43 40.4 5.43 42 7.05 42 8.97 42 8.97 42 19.92 42 19.92 42 21.85 40.4 23.47 38.51 23.47ZM 25.04 4.21C 25.04 3.2 24.24 2.39 23.24 2.39 23.24 2.39 3.49 2.39 3.49 2.39 2.49 2.39 1.69 3.2 1.69 4.21 1.69 4.21 1.69 15.06 1.69 15.06 1.69 16.07 2.49 16.88 3.49 16.88 3.49 16.88 4.88 16.88 4.88 16.88 5.38 16.88 5.78 17.18 5.78 17.69 5.78 17.69 5.78 20.93 5.78 20.93 5.78 20.93 10.37 17.08 10.37 17.08 10.47 16.98 10.67 16.88 10.87 16.88 10.87 16.88 15.26 16.88 15.26 16.88 15.26 16.88 15.26 13.54 15.26 13.54 15.26 13.54 5.88 13.54 5.88 13.54 5.38 13.54 4.98 13.23 4.98 12.72 4.98 12.22 5.38 11.81 5.88 11.81 5.88 11.81 15.26 11.81 15.26 11.81 15.26 11.81 15.26 8.97 15.26 8.97 15.26 8.8 15.29 8.63 15.31 8.47 15.31 8.47 5.88 8.47 5.88 8.47 5.38 8.47 4.98 8.16 4.98 7.66 4.98 7.15 5.38 6.74 5.88 6.74 5.88 6.74 16.08 6.74 16.08 6.74 16.72 5.95 17.69 5.43 18.75 5.43 18.75 5.43 25.04 5.43 25.04 5.43 25.04 5.43 25.04 4.21 25.04 4.21ZM 40.3 8.97C 40.3 7.96 39.51 7.15 38.51 7.15 38.51 7.15 18.75 7.15 18.75 7.15 17.75 7.15 16.96 7.96 16.96 8.97 16.96 8.97 16.96 19.92 16.96 19.92 16.96 20.93 17.75 21.74 18.75 21.74 18.75 21.74 31.12 21.74 31.12 21.74 31.32 21.74 31.52 21.85 31.62 21.95 31.62 21.95 36.21 25.8 36.21 25.8 36.21 25.8 36.21 22.56 36.21 22.56 36.21 22.05 36.61 21.74 37.11 21.74 37.11 21.74 38.51 21.74 38.51 21.74 39.51 21.74 40.3 20.93 40.3 19.92 40.3 19.92 40.3 8.97 40.3 8.97ZM 36.01 18.3C 36.01 18.3 21.05 18.3 21.05 18.3 20.65 18.3 20.25 17.99 20.25 17.49 20.25 16.98 20.55 16.58 21.05 16.58 21.05 16.58 36.01 16.58 36.01 16.58 36.51 16.58 36.91 16.88 36.91 17.39 36.91 17.89 36.51 18.3 36.01 18.3ZM 36.01 13.23C 36.01 13.23 21.05 13.23 21.05 13.23 20.65 13.23 20.25 12.93 20.25 12.42 20.25 11.91 20.55 11.51 21.05 11.51 21.05 11.51 36.01 11.51 36.01 11.51 36.51 11.51 36.91 11.81 36.91 12.32 36.91 12.83 36.51 13.23 36.01 13.23Z" fill="rgb(255,255,255)"/></svg>