<?xml version="1.0" encoding="utf-8"?>
<svg xmlns="http://www.w3.org/2000/svg"
	xmlns:xlink="http://www.w3.org/1999/xlink"
	width="42px" height="42px" viewBox="0 0 42 42">
<path fillRule="evenodd" d="M 41.88 18.44C 41.88 18.44 38.32 24.71 38.32 24.71 38.32 24.71 39.56 31.84 39.56 31.84 39.63 32.26 39.4 32.67 39 32.82 39 32.82 32.3 35.29 32.3 35.29 32.3 35.29 28.73 41.56 28.73 41.56 28.57 41.84 28.28 42 27.98 42 27.88 42 27.78 41.98 27.69 41.95 27.69 41.95 20.98 39.41 20.98 39.41 20.98 39.41 14.28 41.95 14.28 41.95 14.18 41.98 14.08 42 13.99 42 13.68 42 13.4 41.84 13.24 41.56 13.24 41.56 9.67 35.29 9.67 35.29 9.67 35.29 2.97 32.82 2.97 32.82 2.57 32.67 2.34 32.26 2.41 31.84 2.41 31.84 3.65 24.71 3.65 24.71 3.65 24.71 0.08 18.44 0.08 18.44-0.13 18.07-0.04 17.61 0.28 17.33 0.28 17.33 5.74 12.68 5.74 12.68 5.74 12.68 6.98 5.55 6.98 5.55 7.05 5.13 7.41 4.83 7.83 4.83 7.83 4.83 14.96 4.83 14.96 4.83 14.96 4.83 20.43 0.17 20.43 0.17 20.75-0.1 21.22-0.1 21.54 0.17 21.54 0.17 27 4.83 27 4.83 27 4.83 34.14 4.83 34.14 4.83 34.56 4.83 34.92 5.13 34.99 5.55 34.99 5.55 36.23 12.68 36.23 12.68 36.23 12.68 41.69 17.33 41.69 17.33 42.01 17.61 42.09 18.07 41.88 18.44ZM 34.88 13.82C 34.72 13.69 34.62 13.5 34.58 13.3 34.58 13.3 33.41 6.58 33.41 6.58 33.41 6.58 26.69 6.58 26.69 6.58 26.49 6.58 26.29 6.51 26.13 6.38 26.13 6.38 20.98 1.99 20.98 1.99 20.98 1.99 15.83 6.38 15.83 6.38 15.68 6.51 15.48 6.58 15.28 6.58 15.28 6.58 8.56 6.58 8.56 6.58 8.56 6.58 7.39 13.3 7.39 13.3 7.35 13.5 7.25 13.69 7.09 13.82 7.09 13.82 1.94 18.2 1.94 18.2 1.94 18.2 5.31 24.11 5.31 24.11 5.41 24.29 5.44 24.5 5.41 24.7 5.41 24.7 4.24 31.42 4.24 31.42 4.24 31.42 9.26 33.27 9.26 33.27 9.26 33.27 10.56 33.75 10.56 33.75 10.75 33.82 10.91 33.96 11.01 34.14 11.01 34.14 14.37 40.05 14.37 40.05 14.37 40.05 20.08 37.94 20.08 37.94 20.08 37.94 20.69 37.71 20.69 37.71 20.88 37.64 21.09 37.64 21.28 37.71 21.28 37.71 21.69 37.86 21.69 37.86 21.69 37.86 21.69 37.86 21.69 37.86 21.69 37.86 27.6 40.05 27.6 40.05 27.6 40.05 30.96 34.14 30.96 34.14 31.06 33.96 31.22 33.82 31.41 33.75 31.41 33.75 32.51 33.35 32.51 33.35 32.51 33.35 37.73 31.42 37.73 31.42 37.73 31.42 36.56 24.7 36.56 24.7 36.53 24.5 36.56 24.29 36.66 24.11 36.66 24.11 40.03 18.2 40.03 18.2 40.03 18.2 34.88 13.82 34.88 13.82ZM 20.85 35.45C 13.26 35.45 7.08 29.18 7.08 21.47 7.08 13.77 13.26 7.5 20.85 7.5 28.45 7.5 34.62 13.77 34.62 21.47 34.62 29.18 28.45 35.45 20.85 35.45ZM 20.85 9.25C 14.21 9.25 8.81 14.73 8.81 21.47 8.81 28.21 14.21 33.7 20.85 33.7 27.49 33.7 32.9 28.21 32.9 21.47 32.9 14.73 27.49 9.25 20.85 9.25ZM 27.3 29.62C 27.41 29.99 27.28 30.38 26.98 30.6 26.68 30.83 26.27 30.83 25.97 30.6 25.97 30.6 20.8 26.8 20.8 26.8 20.8 26.8 15.64 30.6 15.64 30.6 15.49 30.72 15.31 30.77 15.13 30.77 14.96 30.77 14.78 30.72 14.63 30.6 14.32 30.38 14.2 29.98 14.31 29.62 14.31 29.62 16.28 23.47 16.28 23.47 16.28 23.47 11.12 19.66 11.12 19.66 10.82 19.44 10.69 19.04 10.81 18.68 10.92 18.32 11.26 18.07 11.63 18.07 11.63 18.07 18.01 18.07 18.01 18.07 18.01 18.07 19.98 11.92 19.98 11.92 20.1 11.56 20.43 11.31 20.8 11.31 21.18 11.31 21.51 11.56 21.63 11.92 21.63 11.92 23.6 18.07 23.6 18.07 23.6 18.07 29.98 18.07 29.98 18.07 30.35 18.07 30.68 18.32 30.8 18.68 30.92 19.04 30.79 19.44 30.49 19.66 30.49 19.66 25.32 23.47 25.32 23.47 25.32 23.47 27.3 29.62 27.3 29.62ZM 27.32 19.83C 27.32 19.83 22.97 19.83 22.97 19.83 22.59 19.83 22.26 19.58 22.15 19.22 22.15 19.22 20.8 15.03 20.8 15.03 20.8 15.03 19.46 19.22 19.46 19.22 19.34 19.58 19.01 19.83 18.64 19.83 18.64 19.83 14.29 19.83 14.29 19.83 14.29 19.83 17.81 22.42 17.81 22.42 18.11 22.64 18.24 23.04 18.12 23.4 18.12 23.4 16.78 27.6 16.78 27.6 16.78 27.6 20.3 25.01 20.3 25.01 20.6 24.78 21.01 24.78 21.31 25.01 21.31 25.01 24.83 27.6 24.83 27.6 24.83 27.6 23.49 23.4 23.49 23.4 23.37 23.04 23.5 22.64 23.8 22.42 23.8 22.42 27.32 19.83 27.32 19.83Z" fill="rgb(255,255,255)"/></svg>